<?xml version="1.0" standalone="no"?>
<!DOCTYPE svg PUBLIC "-//W3C//DTD SVG 20010904//EN"
 "http://www.w3.org/TR/2001/REC-SVG-20010904/DTD/svg10.dtd">
<svg version="1.0" xmlns="http://www.w3.org/2000/svg"
 width="240.000000pt" height="119.000000pt" viewBox="0 0 240.000000 119.000000"
 preserveAspectRatio="xMidYMid meet">
<metadata>
Created by potrace 1.16, written by Peter Selinger 2001-2019
</metadata>
<g transform="translate(0.000000,119.000000) scale(0.100000,-0.100000)"
fill="#000000" stroke="none">
<path d="M243 984 c-50 -18 -119 -83 -139 -129 -16 -39 -19 -151 -4 -189 14
-37 78 -105 120 -126 122 -62 273 -11 334 112 60 120 10 259 -117 325 -44 22
-143 26 -194 7z m175 -39 c79 -34 122 -101 122 -192 0 -106 -76 -191 -179
-201 l-51 -5 0 207 0 206 35 0 c20 0 52 -7 73 -15z"/>
<path d="M768 985 c-56 -21 -106 -62 -136 -114 -34 -58 -37 -154 -8 -214 63
-128 209 -177 339 -114 59 29 107 83 107 120 0 26 -15 18 -42 -23 -27 -41
-116 -90 -165 -90 l-33 0 0 205 0 205 37 0 c45 0 116 -33 142 -66 20 -25 51
-33 51 -12 0 6 -18 28 -41 49 -69 63 -168 85 -251 54z"/>
<path d="M1390 760 c0 -207 2 -240 15 -240 12 0 15 19 15 109 l0 109 201 -114
c111 -63 205 -114 208 -114 7 0 3 458 -4 478 -3 7 -9 10 -15 7 -6 -3 -10 -52
-10 -112 0 -86 -3 -104 -14 -100 -8 3 -96 53 -196 111 -100 58 -186 106 -191
106 -5 0 -9 -99 -9 -240z"/>
<path d="M1110 755 l0 -235 105 0 105 0 0 235 0 235 -105 0 -105 0 0 -235z"/>
<path d="M1900 755 l0 -235 205 0 c198 0 205 1 205 20 0 19 -7 20 -95 20 l-95
0 0 135 0 135 96 0 c86 0 95 2 92 18 -3 14 -17 17 -96 20 l-92 3 0 39 0 40 78
0 c79 0 110 9 98 29 -5 7 -70 11 -202 11 l-194 0 0 -235z"/>
<path d="M90 385 c0 -13 131 -15 1115 -15 984 0 1115 2 1115 15 0 13 -131 15
-1115 15 -984 0 -1115 -2 -1115 -15z"/>
<path d="M1067 202 c-21 -23 -22 -71 -3 -97 17 -23 85 -27 110 -6 21 17 21 84
0 105 -22 22 -87 21 -107 -2z"/>
<path d="M1380 200 c-29 -29 -26 -74 6 -99 36 -28 70 -26 101 5 20 20 24 31
19 57 -3 18 -14 38 -23 45 -26 19 -80 15 -103 -8z"/>
</g>
</svg>
