<?xml version="1.0" encoding="UTF-8" standalone="no"?>
<!-- Generator: Adobe Illustrator 20.1.0, SVG Export Plug-In . SVG Version: 6.00 Build 0)  -->

<svg
   version="1.1"
   id="Pokéball"
   x="0px"
   y="0px"
   viewBox="0 0 511.50001 511.40001"
   xml:space="preserve"
   width="511.5"
   height="511.39999"
   xmlns="http://www.w3.org/2000/svg"
   xmlns:svg="http://www.w3.org/2000/svg"><defs
   id="defs31" />
<style
   type="text/css"
   id="style18">
	.st0{fill:#FFFFFF;}
	.st1{fill:#DFDFDF;}
	.st2{fill:#FF1C1C;}
	.st3{fill:#DF1818;}
</style>
<g
   id="Pokéball_1_"
   transform="translate(-41.9,-41.3)">
	<g
   id="Colours">
		<path
   id="Down"
   class="st0"
   d="m 297.6,380.9 c -40.4,0 -74.1,-28.6 -82.1,-66.6 H 81.1 c 9.5,110.5 102.2,197.2 215.1,197.2 112.9,0 205.7,-86.7 215.1,-197.2 H 379.7 c -8,38.1 -41.7,66.6 -82.1,66.6 z" />
		<path
   id="Shadow_Down"
   class="st1"
   d="m 345.6,505.9 c 89.6,-21 157.7,-97.7 165.7,-191.6 h -53 c -5.3,85.2 -50,157.4 -112.7,191.6 z" />
		<path
   id="Center"
   class="st0"
   d="m 347.1,297 v 0 c -0.1,0 -0.1,0 0,0 -0.1,-6.1 -1.2,-11.9 -3.2,-17.3 -7,-18.8 -25.1,-32.1 -46.3,-32.1 -21.2,0 -39.3,13.4 -46.3,32.1 -2,5.4 -3.1,11.2 -3.1,17.3 0,0 0,0 0,0 h 0.1 c 0,0 0,0 0,0 0,6.1 1.1,11.9 3.1,17.3 7,18.8 25.1,32.1 46.3,32.1 21.2,0 39.3,-13.4 46.3,-32.1 2,-5.3 3.1,-11.2 3.1,-17.3 0,0 0,0 0,0 z" />
		<path
   id="Up"
   class="st2"
   d="m 297.7,213.2 c 40.4,0 74.1,28.6 82.1,66.6 H 514.2 C 504.7,169.2 412,82.5 299,82.5 186,82.5 93.4,169.2 83.9,279.7 h 131.7 c 8,-38 41.7,-66.5 82.1,-66.5 z" />
		<path
   id="Shadow_Up"
   class="st3"
   d="m 458.3,279.7 h 55.8 C 505.9,184.2 435.5,106.4 343.6,87.1 c 63.8,33.7 109.3,106.6 114.7,192.6 z" />
	</g>
	<path
   id="Line"
   d="m 299,82.5 c 113,0 205.7,86.7 215.1,197.2 H 379.7 c -8,-38 -41.7,-66.6 -82.1,-66.6 -40.4,0 -74.1,28.6 -82.1,66.6 H 83.9 C 93.4,169.2 186.1,82.5 299,82.5 Z m 44.9,197.2 c 2,5.4 3.1,11.2 3.1,17.3 0,0 0,0 0,0 h 0.1 c 0,0 0,0 0,0 0,6.1 -1.1,11.9 -3.1,17.3 -7,18.8 -25.1,32.1 -46.3,32.1 -21.2,0 -39.3,-13.4 -46.3,-32.1 -2,-5.4 -3.1,-11.2 -3.1,-17.3 0,0 0,0 0,0 h -0.1 c 0,0 0,0 0,0 0,-6.1 1.1,-11.9 3.1,-17.3 7,-18.8 25.1,-32.1 46.3,-32.1 21.2,0 39.3,13.4 46.3,32.1 z m -47.7,231.9 c -113,0 -205.7,-86.7 -215.1,-197.2 h 134.4 c 8,38 41.7,66.6 82.1,66.6 40.4,0 74.1,-28.6 82.1,-66.6 H 511.4 C 501.9,424.8 409.2,511.6 296.2,511.6 Z M 297.6,41.3 C 156.4,41.3 41.9,155.8 41.9,297 41.9,438.2 156.4,552.7 297.6,552.7 438.8,552.7 553.4,438.3 553.4,297 553.4,155.7 438.9,41.3 297.6,41.3 Z" />
</g>
</svg>
