<?xml version="1.0" standalone="no"?>
<!DOCTYPE svg PUBLIC "-//W3C//DTD SVG 20010904//EN"
 "http://www.w3.org/TR/2001/REC-SVG-20010904/DTD/svg10.dtd">
<svg version="1.0" xmlns="http://www.w3.org/2000/svg"
 width="120.000000pt" height="120.000000pt" viewBox="0 0 120.000000 120.000000"
 preserveAspectRatio="xMidYMid meet">
<metadata>
Created by potrace 1.16, written by Peter Selinger 2001-2019
</metadata>
<g transform="translate(0.000000,120.000000) scale(0.100000,-0.100000)"
fill="#000000" stroke="none">
<path d="M441 1174 c-195 -52 -365 -224 -416 -420 -19 -75 -19 -233 0 -308 52
-199 222 -369 421 -421 77 -20 232 -20 308 0 199 53 369 222 421 421 19 75 19
233 0 308 -52 198 -223 369 -421 421 -73 19 -240 19 -313 -1z m329 -278 l0
-65 -52 -3 -53 -3 -3 -47 -3 -48 57 0 57 0 -7 -37 c-3 -21 -6 -50 -6 -65 0
-27 -2 -28 -50 -28 l-50 0 0 -180 0 -180 -80 0 -80 0 0 180 0 180 -35 0 -35 0
0 65 0 65 35 0 c34 0 35 1 35 38 1 54 19 124 38 146 29 32 74 45 155 46 l77 0
0 -64z"/>
</g>
</svg>
