<svg xmlns="http://www.w3.org/2000/svg" width="120" height="120" viewBox="0 0 120 120" version="1.1"><path d="M 44.124 2.578 C 24.756 7.787, 7.594 25.106, 2.528 44.552 C 0.556 52.123, 0.556 67.877, 2.528 75.448 C 7.652 95.120, 24.880 112.348, 44.552 117.472 C 52.123 119.444, 67.877 119.444, 75.448 117.472 C 95.120 112.348, 112.348 95.120, 117.472 75.448 C 119.444 67.877, 119.444 52.123, 117.472 44.552 C 112.348 24.880, 95.120 7.652, 75.448 2.528 C 68.063 0.605, 51.361 0.631, 44.124 2.578 M 58.034 25.752 C 53.370 28.104, 51.068 32.464, 50.333 40.336 C 49.730 46.791, 49.672 46.899, 46.610 47.197 C 43.531 47.497, 43.497 47.562, 43.202 53.750 L 42.905 60 46.452 60 L 50 60 50 78 L 50 96 58 96 L 66 96 66 78 L 66 60 70.860 60 L 75.720 60 76.307 54.318 C 76.629 51.193, 76.666 48.268, 76.388 47.818 C 76.109 47.368, 73.634 47, 70.886 47 L 65.890 47 66.195 42.250 L 66.500 37.500 71.750 37.198 L 77 36.895 77 30.448 L 77 24 69.250 24.002 C 63.862 24.003, 60.443 24.536, 58.034 25.752" stroke="none" fill="#e4141c" fill-rule="evenodd"/></svg>