<svg xmlns="http://www.w3.org/2000/svg" width="120" height="120" viewBox="0 0 120 120" version="1.1"><path d="M 44.124 2.578 C 24.756 7.787, 7.594 25.106, 2.528 44.552 C 0.556 52.123, 0.556 67.877, 2.528 75.448 C 7.652 95.120, 24.880 112.348, 44.552 117.472 C 52.123 119.444, 67.877 119.444, 75.448 117.472 C 95.120 112.348, 112.348 95.120, 117.472 75.448 C 119.444 67.877, 119.444 52.123, 117.472 44.552 C 112.348 24.880, 95.120 7.652, 75.448 2.528 C 68.063 0.605, 51.361 0.631, 44.124 2.578 M 37.520 31.287 C 35.289 32.551, 32.551 35.289, 31.287 37.520 C 29.173 41.253, 29.033 42.649, 29.033 60 C 29.033 77.351, 29.173 78.747, 31.287 82.480 C 32.551 84.711, 35.289 87.449, 37.520 88.713 C 41.253 90.827, 42.649 90.967, 60 90.967 C 77.351 90.967, 78.747 90.827, 82.480 88.713 C 84.711 87.449, 87.449 84.711, 88.713 82.480 C 90.827 78.747, 90.967 77.351, 90.967 60 C 90.967 42.649, 90.827 41.253, 88.713 37.520 C 87.449 35.289, 84.711 32.551, 82.480 31.287 C 78.747 29.173, 77.351 29.033, 60 29.033 C 42.649 29.033, 41.253 29.173, 37.520 31.287 M 43.258 34.663 C 42.026 34.924, 39.689 36.464, 38.067 38.087 C 34.314 41.840, 33.703 45.839, 34.157 63.648 C 34.701 84.931, 35.384 85.500, 60.404 85.500 C 85.301 85.500, 85.500 85.298, 85.500 60 C 85.500 34.943, 85.155 34.574, 61.500 34.345 C 52.700 34.260, 44.491 34.403, 43.258 34.663 M 74.046 40.445 C 73.386 41.240, 72.994 42.927, 73.173 44.195 C 73.595 47.168, 77.830 47.954, 79.694 45.404 C 81.373 43.108, 81.338 42.481, 79.429 40.571 C 77.470 38.613, 75.603 38.569, 74.046 40.445 M 53.450 45.407 C 43.361 49.801, 40.978 63.213, 48.882 71.118 C 55.369 77.604, 64.631 77.604, 71.118 71.118 C 83.529 58.706, 69.566 38.387, 53.450 45.407 M 52.923 52.923 C 46.482 59.365, 50.889 70, 60 70 C 65.847 70, 70 65.847, 70 60 C 70 50.889, 59.365 46.482, 52.923 52.923" stroke="none" fill="#e4151d" fill-rule="evenodd"/></svg>