<svg xmlns="http://www.w3.org/2000/svg" width="120" height="120" viewBox="0 0 120 120" version="1.1"><path d="M 61 49.518 C 61 66.413, 60.620 75.875, 59.883 77.316 C 56.654 83.630, 48.830 84.983, 43.923 80.077 C 40.616 76.769, 40.107 72.627, 42.453 68.091 C 44.082 64.942, 48.948 62.492, 51.993 63.288 C 53.862 63.777, 54 63.329, 54 56.767 L 54 49.721 49.068 50.305 C 29.577 52.614, 21.043 74.899, 34.301 88.872 C 45.070 100.223, 63.871 97.569, 71.265 83.653 C 73.211 79.990, 73.513 77.664, 73.820 63.945 L 74.169 48.389 78.834 50.643 C 81.400 51.882, 85.075 53.032, 87 53.198 L 90.500 53.500 90.500 47.610 L 90.500 41.721 86.127 40.430 C 80.388 38.735, 76.244 34.631, 74.615 29.031 L 73.298 24.500 67.149 24.202 L 61 23.905 61 49.518" stroke="none" fill="#fbf1f1" fill-rule="evenodd"/><path d="M 44.124 2.578 C 24.756 7.787, 7.594 25.106, 2.528 44.552 C 0.556 52.123, 0.556 67.877, 2.528 75.448 C 7.652 95.120, 24.880 112.348, 44.552 117.472 C 52.123 119.444, 67.877 119.444, 75.448 117.472 C 95.120 112.348, 112.348 95.120, 117.472 75.448 C 119.444 67.877, 119.444 52.123, 117.472 44.552 C 112.348 24.880, 95.120 7.652, 75.448 2.528 C 68.063 0.605, 51.361 0.631, 44.124 2.578 M 61 49.518 C 61 66.413, 60.620 75.875, 59.883 77.316 C 56.654 83.630, 48.830 84.983, 43.923 80.077 C 40.616 76.769, 40.107 72.627, 42.453 68.091 C 44.082 64.942, 48.948 62.492, 51.993 63.288 C 53.862 63.777, 54 63.329, 54 56.767 L 54 49.721 49.068 50.305 C 29.577 52.614, 21.043 74.899, 34.301 88.872 C 45.070 100.223, 63.871 97.569, 71.265 83.653 C 73.211 79.990, 73.513 77.664, 73.820 63.945 L 74.169 48.389 78.834 50.643 C 81.400 51.882, 85.075 53.032, 87 53.198 L 90.500 53.500 90.500 47.610 L 90.500 41.721 86.127 40.430 C 80.388 38.735, 76.244 34.631, 74.615 29.031 L 73.298 24.500 67.149 24.202 L 61 23.905 61 49.518" stroke="none" fill="#e4141c" fill-rule="evenodd"/></svg>