<?xml version="1.0" standalone="no"?>
<!DOCTYPE svg PUBLIC "-//W3C//DTD SVG 20010904//EN"
 "http://www.w3.org/TR/2001/REC-SVG-20010904/DTD/svg10.dtd">
<svg version="1.0" xmlns="http://www.w3.org/2000/svg"
 width="120.000000pt" height="120.000000pt" viewBox="0 0 120.000000 120.000000"
 preserveAspectRatio="xMidYMid meet">
<metadata>
Created by potrace 1.16, written by Peter Selinger 2001-2019
</metadata>
<g transform="translate(0.000000,120.000000) scale(0.100000,-0.100000)"
fill="#000000" stroke="none">
<path d="M441 1174 c-195 -52 -365 -224 -416 -420 -19 -75 -19 -233 0 -308 52
-199 222 -369 421 -421 77 -20 232 -20 308 0 199 53 369 222 421 421 19 75 19
233 0 308 -52 198 -223 369 -421 421 -73 19 -240 19 -313 -1z m302 -249 c3
-19 15 -49 27 -65 24 -33 87 -70 120 -70 19 0 21 -5 18 -62 l-3 -63 -40 3
c-22 2 -59 14 -82 27 l-43 24 0 -135 c0 -160 -11 -209 -56 -263 -46 -53 -106
-81 -176 -81 -213 0 -309 265 -147 404 39 33 102 56 153 56 25 0 26 -2 26 -67
l0 -68 -37 -1 c-27 0 -43 -8 -65 -32 -33 -38 -36 -74 -8 -119 23 -38 74 -52
121 -33 55 23 59 43 59 325 l0 255 64 0 63 0 6 -35z"/>
</g>
</svg>
