<svg xmlns="http://www.w3.org/2000/svg" width="120" height="120" viewBox="0 0 120 120" version="1.1"><path d="M 44.124 2.578 C 24.756 7.787, 7.594 25.106, 2.528 44.552 C 0.556 52.123, 0.556 67.877, 2.528 75.448 C 7.652 95.120, 24.880 112.348, 44.552 117.472 C 52.123 119.444, 67.877 119.444, 75.448 117.472 C 95.120 112.348, 112.348 95.120, 117.472 75.448 C 119.444 67.877, 119.444 52.123, 117.472 44.552 C 112.348 24.880, 95.120 7.652, 75.448 2.528 C 68.063 0.605, 51.361 0.631, 44.124 2.578 M 67.218 30.663 C 62.636 32.922, 59.765 37.393, 59.214 43.128 C 58.948 45.895, 58.243 48, 57.583 48 C 56.943 48, 53.738 47.302, 50.460 46.448 C 43.358 44.599, 37.197 41.145, 31.293 35.702 C 28.909 33.505, 26.659 32.008, 26.292 32.375 C 25.925 32.742, 25.443 35.620, 25.221 38.771 C 24.875 43.691, 25.188 45.041, 27.437 48.336 L 30.056 52.171 27.119 51.526 L 24.182 50.881 25.161 54.691 C 26.343 59.292, 28.565 62.155, 33.097 64.918 L 36.500 66.993 33.152 66.996 L 29.804 67 31.848 70.250 C 32.972 72.037, 35.796 74.517, 38.123 75.761 C 40.450 77.004, 42.543 78.210, 42.774 78.441 C 43.948 79.615, 33.827 83.324, 28.221 83.774 L 21.883 84.283 24.620 86.079 C 32.931 91.531, 51.795 92.491, 63.317 88.049 C 76.484 82.972, 87.922 67.615, 90.224 51.921 C 91.142 45.660, 91.835 43.946, 94.656 40.958 C 98.667 36.709, 98.863 35.722, 95.435 37.025 C 91.173 38.645, 90.696 38.150, 93.411 34.923 C 97.033 30.619, 96.666 30.008, 91.563 31.843 C 87.297 33.377, 86.973 33.353, 83.177 31.219 C 78.468 28.573, 71.921 28.345, 67.218 30.663" stroke="none" fill="#e4141c" fill-rule="evenodd"/></svg>